<svg xmlns="http://www.w3.org/2000/svg" xmlns:xlink="http://www.w3.org/1999/xlink" width="48" zoomAndPan="magnify"
     viewBox="0 0 36 36.000001" height="48" preserveAspectRatio="xMidYMid meet" version="1.0">
    <defs>
        <g/>
        <clipPath id="57325f03be">
            <path d="M 0.488281 3 L 9 3 L 9 28 L 0.488281 28 Z M 0.488281 3 " clip-rule="nonzero"/>
        </clipPath>
    </defs>
    <g clip-path="url(#57325f03be)">
        <g fill="#EBEAED" fill-opacity="1">
            <g transform="translate(-0.96528, 23.978497)">
                <g>
                    <path d="M 6.554688 -18.035156 C 6.628906 -18.449219 6.996094 -18.792969 7.410156 -18.792969 L 9.503906 -18.792969 L 9.699219 -20.667969 L 7.605469 -20.667969 C 6.945312 -20.667969 6.3125 -20.449219 5.800781 -20.035156 C 5.679688 -19.9375 5.582031 -19.863281 5.507812 -19.765625 C 5.019531 -19.277344 4.726562 -18.695312 4.65625 -18.035156 L 3.851562 -10.238281 C 3.777344 -9.773438 3.414062 -9.457031 2.996094 -9.457031 L 1.949219 -9.457031 L 1.753906 -7.578125 L 2.804688 -7.578125 C 3.21875 -7.578125 3.558594 -7.238281 3.484375 -6.824219 L 2.65625 0.976562 C 2.582031 1.632812 2.753906 2.242188 3.144531 2.707031 C 3.191406 2.804688 3.265625 2.898438 3.386719 2.972656 C 3.800781 3.4375 4.386719 3.632812 5.046875 3.632812 L 7.140625 3.632812 L 7.335938 1.730469 L 5.238281 1.730469 C 4.824219 1.730469 4.535156 1.390625 4.558594 0.976562 L 5.386719 -6.824219 C 5.460938 -7.457031 5.3125 -8.019531 4.921875 -8.53125 C 5.386719 -8.992188 5.679688 -9.578125 5.753906 -10.238281 Z M 6.554688 -18.035156 "/>
                </g>
            </g>
        </g>
    </g>
    <g fill="#EBEAED" fill-opacity="1">
        <g transform="translate(6.222103, 23.978497)">
            <g>
                <path d="M 4.605469 -10.503906 C 4.191406 -10.503906 3.875 -10.820312 3.949219 -11.234375 L 4.386719 -15.332031 C 4.410156 -15.746094 4.777344 -16.0625 5.191406 -16.0625 L 6.554688 -16.0625 C 6.96875 -16.0625 7.238281 -15.746094 7.214844 -15.332031 L 6.847656 -12.039062 L 8.652344 -12.039062 L 9.019531 -15.355469 C 9.089844 -16.011719 8.894531 -16.621094 8.433594 -17.132812 C 7.996094 -17.621094 7.433594 -17.867188 6.75 -17.867188 L 5.386719 -17.867188 C 4.023438 -17.867188 2.707031 -16.71875 2.582031 -15.332031 L 2.144531 -11.234375 C 2.023438 -9.796875 3.023438 -8.699219 4.410156 -8.699219 L 5.777344 -8.699219 C 6.191406 -8.699219 6.507812 -8.382812 6.433594 -7.96875 L 5.847656 -2.535156 C 5.824219 -2.121094 5.460938 -1.804688 5.046875 -1.804688 L 3.679688 -1.804688 C 3.265625 -1.804688 2.996094 -2.121094 3.023438 -2.535156 L 3.386719 -5.824219 L 1.585938 -5.824219 L 1.21875 -2.535156 C 1.097656 -1.097656 2.121094 0 3.507812 0 L 4.875 0 C 6.265625 0 7.53125 -1.097656 7.652344 -2.535156 L 8.238281 -7.96875 C 8.359375 -9.359375 7.359375 -10.503906 5.972656 -10.503906 Z M 4.605469 -10.503906 "/>
            </g>
        </g>
    </g>
    <g fill="#EBEAED" fill-opacity="1">
        <g transform="translate(13.28766, 23.978497)">
            <g>
                <path d="M 0.851562 0.976562 L 2.707031 0.976562 L 8.285156 -18.839844 L 6.457031 -18.839844 Z M 0.851562 0.976562 "/>
            </g>
        </g>
    </g>
    <g fill="#EBEAED" fill-opacity="1">
        <g transform="translate(19.256741, 23.978497)">
            <g>
                <path d="M 4.65625 -17.867188 L 2.851562 -17.867188 L 0.976562 0 L 7.386719 0 L 7.554688 -1.804688 L 2.949219 -1.804688 Z M 4.65625 -17.867188 "/>
            </g>
        </g>
    </g>
    <g fill="#EBEAED" fill-opacity="1">
        <g transform="translate(26.297924, 23.978497)">
            <g>
                <path d="M 7.800781 -9.457031 L 7.457031 -9.457031 C 7.042969 -9.457031 6.726562 -9.773438 6.800781 -10.238281 L 7.605469 -18.035156 C 7.675781 -18.695312 7.53125 -19.277344 7.164062 -19.765625 C 7.042969 -19.886719 6.96875 -19.960938 6.921875 -20.035156 C 6.457031 -20.449219 5.921875 -20.667969 5.265625 -20.667969 L 3.144531 -20.667969 L 2.949219 -18.792969 L 5.070312 -18.792969 C 5.484375 -18.792969 5.800781 -18.449219 5.726562 -18.035156 L 4.921875 -10.238281 C 4.851562 -9.578125 4.972656 -8.992188 5.335938 -8.53125 C 4.898438 -8.042969 4.632812 -7.484375 4.558594 -6.824219 L 3.730469 0.976562 C 3.703125 1.390625 3.316406 1.730469 2.898438 1.730469 L 0.78125 1.730469 L 0.585938 3.632812 L 2.707031 3.632812 C 3.363281 3.632812 3.972656 3.414062 4.507812 2.972656 L 4.800781 2.707031 C 5.289062 2.21875 5.558594 1.632812 5.605469 0.976562 L 6.433594 -6.824219 C 6.507812 -7.238281 6.847656 -7.578125 7.261719 -7.578125 L 8.3125 -7.578125 L 8.507812 -9.457031 Z M 7.800781 -9.457031 "/>
            </g>
        </g>
    </g>
</svg>